HIERARCHY
ROOT Hips
{
    OFFSET 0.000000 0.000000 0.000000
    CHANNELS 6 Xposition Yposition Zposition Zrotation Xrotation Yrotation
    JOINT Spine
    {
        OFFSET -0.000000 8.161387 0.000000
        CHANNELS 3 Zrotation Xrotation Yrotation
        JOINT Spine1
        {
            OFFSET -0.000000 24.903122 0.000000
            CHANNELS 3 Zrotation Xrotation Yrotation
            JOINT Neck
            {
                OFFSET -0.000000 24.800850 2.254623
                CHANNELS 3 Zrotation Xrotation Yrotation
                JOINT Head
                {
                    OFFSET -0.000000 13.934076 -1.990582
                    CHANNELS 3 Zrotation Xrotation Yrotation
                    End Site
                    {
                        OFFSET -0.000000 19.905823 0.000000
                    }
                }
            }
            JOINT LeftShoulder
            {
                OFFSET 3.997752 23.270357 -0.100198
                CHANNELS 3 Zrotation Xrotation Yrotation
                JOINT LeftArm
                {
                    OFFSET 10.924766 0.000000 0.000000
                    CHANNELS 3 Zrotation Xrotation Yrotation
                    JOINT LeftForeArm
                    {
                        OFFSET 29.012781 0.000000 0.000000
                        CHANNELS 3 Zrotation Xrotation Yrotation
                        JOINT LeftHand
                        {
                            OFFSET 29.873722 0.000000 0.000000
                            CHANNELS 3 Zrotation Xrotation Yrotation
                            End Site
                            {
                                OFFSET 14.929368 0.000000 0.000000
                            }
                        }
                    }
                }
            }
            JOINT RightShoulder
            {
                OFFSET -3.962684 23.270357 -0.100198
                CHANNELS 3 Zrotation Xrotation Yrotation
                JOINT RightArm
                {
                    OFFSET -10.924766 0.000000 0.000000
                    CHANNELS 3 Zrotation Xrotation Yrotation
                    JOINT RightForeArm
                    {
                        OFFSET -29.012781 0.000000 0.000000
                        CHANNELS 3 Zrotation Xrotation Yrotation
                        JOINT RightHand
                        {
                            OFFSET -29.873722 0.000000 0.000000
                            CHANNELS 3 Zrotation Xrotation Yrotation
                            End Site
                            {
                                OFFSET -14.929368 0.000000 0.000000
                            }
                        }
                    }
                }
            }
        }
    }
    JOINT LeftUpLeg
    {
        OFFSET 9.952911 0.000000 0.000000
        CHANNELS 3 Zrotation Xrotation Yrotation
        JOINT LeftLeg
        {
            OFFSET -0.000000 -36.972065 0.000000
            CHANNELS 3 Zrotation Xrotation Yrotation
            JOINT LeftFoot
            {
                OFFSET -0.000000 -44.005497 0.000000
                CHANNELS 3 Zrotation Xrotation Yrotation
                JOINT LeftToeBase
                {
                    OFFSET -0.000000 -6.469392 14.929368
                    CHANNELS 3 Zrotation Xrotation Yrotation
                    End Site
                    {
                        OFFSET -0.000000 0.000000 3.981164
                    }
                }
            }
        }
    }
    JOINT RightUpLeg
    {
        OFFSET -9.952911 0.000000 0.000000
        CHANNELS 3 Zrotation Xrotation Yrotation
        JOINT RightLeg
        {
            OFFSET -0.000000 -36.972065 0.000000
            CHANNELS 3 Zrotation Xrotation Yrotation
            JOINT RightFoot
            {
                OFFSET -0.000000 -44.005497 0.000000
                CHANNELS 3 Zrotation Xrotation Yrotation
                JOINT RightToeBase
                {
                    OFFSET -0.000000 -6.469392 14.929368
                    CHANNELS 3 Zrotation Xrotation Yrotation
                    End Site
                    {
                        OFFSET -0.000000 0.000000 3.981164
                    }
                }
            }
        }
    }
}
MOTION
Frames:    6
Frame Time:    0.008333
-0.033277    89.228020    -15.141806    0.006526    -0.763154    6.814000    0.796844    -5.372772    1.854918    -1.282937    14.128016    0.764302    -5.838729    12.074068    -16.877674    15.993838    3.700692    -15.644156    0.608797    11.902046    7.203374    -23.205423    81.773064    -15.634485    44.723946    -21.057056    -79.138641    23.385521    15.040852    -18.232849    -1.021784    12.166386    -3.177609    58.577374    57.688072    -15.492769    -31.834957    -3.641903    87.721710    -34.472218    18.234962    31.447195    -1.188390    -0.171870    1.094626    3.078189    13.822742    -2.442650    -0.603716    -12.898046    -8.351025    -0.349705    -0.276433    0.979361    1.087094    7.288336    2.789450    -0.109742    -0.404516    -1.282662    -1.706816    -5.828021    -15.153310    0.048676    -0.061474    -0.052836    
-0.032112    89.230904    -15.147954    0.000232    -0.763608    6.756155    0.817213    -5.314307    1.876227    -1.284726    14.152618    0.771738    -5.834116    12.095725    -16.987633    15.995817    3.815346    -15.776985    0.598549    11.901415    7.204575    -23.247993    81.748116    -15.586075    44.668747    -21.031691    -79.167252    23.472996    15.019898    -18.215637    -1.024639    12.194222    -3.160509    58.601757    57.716373    -15.505231    -31.909267    -3.658762    87.687019    -34.480976    18.277880    31.441483    -1.181136    -0.179784    1.124870    3.070074    13.840734    -2.456820    -0.602656    -12.894391    -8.311963    -0.337803    -0.306008    0.970613    1.085836    7.275106    2.746306    -0.112902    -0.399967    -1.233599    -1.688349    -5.835318    -15.115494    -0.015812    -0.041798    0.031302    
-0.031825    89.232697    -15.157467    -0.011593    -0.745999    6.698963    0.837825    -5.270504    1.886236    -1.275438    14.187252    0.774131    -5.889665    12.074348    -17.064034    16.079920    3.984420    -15.868883    0.587767    11.862580    7.225109    -23.290258    81.769608    -15.545348    44.691822    -21.021988    -79.151550    23.560511    15.019041    -18.259966    -1.043398    12.211501    -3.145792    58.599041    57.748276    -15.492261    -31.917002    -3.683793    87.685822    -34.531490    18.241535    31.457739    -1.172279    -0.200754    1.143981    3.062731    13.845928    -2.362218    -0.624929    -12.889940    -8.370637    -0.330136    -0.317956    0.960476    1.088499    7.238198    2.732327    -0.117011    -0.388821    -1.166108    -1.673273    -5.828733    -15.106967    -0.007686    -0.016011    0.014228    
-0.031523    89.233978    -15.164617    -0.021503    -0.730817    6.638005    0.854272    -5.227190    1.902578    -1.267011    14.226492    0.778797    -5.889070    12.063401    -17.177591    16.075159    4.124291    -16.007919    0.573787    11.823398    7.240096    -23.228609    81.778168    -15.606873    44.692657    -21.007013    -79.137222    23.599386    15.022585    -18.238817    -1.057286    12.209604    -3.118946    58.621635    57.753479    -15.522280    -31.921478    -3.690507    87.698341    -34.567909    18.234741    31.462326    -1.156236    -0.214852    1.118087    3.033176    13.850231    -2.294698    -0.698412    -12.872028    -8.339324    -0.261336    -0.397341    0.851679    1.084895    7.201121    2.719720    -0.111998    -0.368303    -1.060552    -1.681464    -5.820580    -15.135931    -0.012158    -0.044177    0.026828    
-0.032395    89.234993    -15.171595    -0.033293    -0.707064    6.579548    0.865701    -5.193597    1.920332    -1.253613    14.260418    0.783374    -5.874840    12.061316    -17.258602    16.070427    4.266814    -16.114141    0.567787    11.795340    7.240819    -23.236507    81.795387    -15.612101    44.700924    -21.019167    -79.108963    23.570560    15.005581    -18.222176    -1.051988    12.217841    -3.104372    58.635971    57.767540    -15.555954    -31.947378    -3.720104    87.692749    -34.563984    18.229443    31.470936    -1.133648    -0.218782    1.118738    2.996341    13.815328    -2.222609    -0.716493    -12.853935    -8.356751    -0.247987    -0.431691    0.842531    1.088160    7.150302    2.690594    -0.113256    -0.342750    -0.995618    -1.663164    -5.820354    -15.119069    -0.024364    -0.034255    0.041326    
-0.033751    89.236053    -15.179714    -0.045172    -0.683244    6.522698    0.876984    -5.155639    1.921763    -1.239222    14.290246    0.782276    -5.850756    12.105821    -17.354679    16.055536    4.333038    -16.229420    0.548367    11.768232    7.262625    -23.364323    81.813553    -15.483846    44.737328    -21.014078    -79.082253    23.497417    15.038816    -18.232323    -1.062609    12.232352    -3.061469    58.630821    57.766392    -15.558476    -31.965315    -3.731869    87.694397    -34.570625    18.235386    31.473989    -1.125716    -0.227016    1.101603    2.984318    13.790661    -2.119585    -0.747358    -12.854555    -8.396254    -0.255374    -0.410871    0.846446    1.091390    7.098688    2.675859    -0.114965    -0.317792    -0.949092    -1.663435    -5.820627    -15.094491    -0.041077    -0.018757    0.060741    
